<mxfile host="app.diagrams.net" agent="Mozilla/5.0 (Macintosh; Intel Mac OS X 10_15_7) AppleWebKit/537.36 (KHTML, like Gecko) Chrome/129.0.0.0 Safari/537.36" version="24.7.17">
  <diagram name="Page-1" id="0783ab3e-0a74-02c8-0abd-f7b4e66b4bec">
    <mxGraphModel dx="1912" dy="1047" grid="1" gridSize="10" guides="1" tooltips="1" connect="1" arrows="1" fold="1" page="1" pageScale="1" pageWidth="850" pageHeight="1100" background="none" math="0" shadow="0">
      <root>
        <mxCell id="0" />
        <mxCell id="1" parent="0" />
        <mxCell id="1c1d494c118603dd-1" value="" style="swimlane;html=1;childLayout=stackLayout;startSize=20;rounded=0;shadow=0;comic=0;labelBackgroundColor=none;strokeWidth=1;fontFamily=Verdana;fontSize=12;align=center;" parent="1" vertex="1">
          <mxGeometry x="40" y="20" width="750" height="1150" as="geometry" />
        </mxCell>
        <mxCell id="1c1d494c118603dd-2" value="Patient" style="swimlane;html=1;startSize=20;" parent="1c1d494c118603dd-1" vertex="1">
          <mxGeometry y="20" width="250" height="1130" as="geometry" />
        </mxCell>
        <mxCell id="MPAdA7pHePFHHVDjgnxd-66" style="edgeStyle=orthogonalEdgeStyle;rounded=0;orthogonalLoop=1;jettySize=auto;html=1;exitX=0.5;exitY=1;exitDx=0;exitDy=0;entryX=0.5;entryY=0;entryDx=0;entryDy=0;" parent="1c1d494c118603dd-2" source="60571a20871a0731-4" target="KbDHJAMVQJwJWBfrR8Hl-14" edge="1">
          <mxGeometry relative="1" as="geometry" />
        </mxCell>
        <mxCell id="60571a20871a0731-4" value="" style="ellipse;whiteSpace=wrap;html=1;rounded=0;shadow=0;comic=0;labelBackgroundColor=none;strokeWidth=1;fillColor=#000000;fontFamily=Verdana;fontSize=12;align=center;" parent="1c1d494c118603dd-2" vertex="1">
          <mxGeometry x="100" y="30" width="40" height="40" as="geometry" />
        </mxCell>
        <mxCell id="KbDHJAMVQJwJWBfrR8Hl-14" value="Register to Portal" style="rounded=1;whiteSpace=wrap;html=1;shadow=0;comic=0;labelBackgroundColor=none;strokeWidth=1;fontFamily=Verdana;fontSize=12;align=center;arcSize=50;" parent="1c1d494c118603dd-2" vertex="1">
          <mxGeometry x="70" y="90" width="100" height="30" as="geometry" />
        </mxCell>
        <mxCell id="KbDHJAMVQJwJWBfrR8Hl-15" value="" style="endArrow=classic;html=1;rounded=0;exitX=1;exitY=0.75;exitDx=0;exitDy=0;" parent="1c1d494c118603dd-2" source="KbDHJAMVQJwJWBfrR8Hl-14" edge="1">
          <mxGeometry width="50" height="50" relative="1" as="geometry">
            <mxPoint x="170" y="164.41" as="sourcePoint" />
            <mxPoint x="320" y="113" as="targetPoint" />
          </mxGeometry>
        </mxCell>
        <mxCell id="saKa0zLGz0taIL4yaIBg-12" style="edgeStyle=orthogonalEdgeStyle;rounded=0;orthogonalLoop=1;jettySize=auto;html=1;entryX=0.5;entryY=0;entryDx=0;entryDy=0;" edge="1" parent="1c1d494c118603dd-2" source="KbDHJAMVQJwJWBfrR8Hl-19" target="saKa0zLGz0taIL4yaIBg-9">
          <mxGeometry relative="1" as="geometry" />
        </mxCell>
        <mxCell id="KbDHJAMVQJwJWBfrR8Hl-19" value="Patient notified successful registration" style="rounded=1;whiteSpace=wrap;html=1;shadow=0;comic=0;labelBackgroundColor=none;strokeWidth=1;fontFamily=Verdana;fontSize=12;align=center;arcSize=50;" parent="1c1d494c118603dd-2" vertex="1">
          <mxGeometry x="115" y="340" width="110" height="40" as="geometry" />
        </mxCell>
        <mxCell id="saKa0zLGz0taIL4yaIBg-3" style="edgeStyle=orthogonalEdgeStyle;rounded=0;orthogonalLoop=1;jettySize=auto;html=1;" edge="1" parent="1c1d494c118603dd-2" source="saKa0zLGz0taIL4yaIBg-2">
          <mxGeometry relative="1" as="geometry">
            <mxPoint x="120" y="130" as="targetPoint" />
          </mxGeometry>
        </mxCell>
        <mxCell id="saKa0zLGz0taIL4yaIBg-2" value="Check and try again" style="rounded=1;whiteSpace=wrap;html=1;shadow=0;comic=0;labelBackgroundColor=none;strokeWidth=1;fontFamily=Verdana;fontSize=12;align=center;arcSize=50;" vertex="1" parent="1c1d494c118603dd-2">
          <mxGeometry x="90" y="170" width="100" height="30" as="geometry" />
        </mxCell>
        <mxCell id="saKa0zLGz0taIL4yaIBg-9" value="" style="shape=mxgraph.bpmn.shape;html=1;verticalLabelPosition=bottom;labelBackgroundColor=#ffffff;verticalAlign=top;perimeter=ellipsePerimeter;outline=end;symbol=terminate;rounded=0;shadow=0;comic=0;strokeWidth=1;fontFamily=Verdana;fontSize=12;align=center;" vertex="1" parent="1c1d494c118603dd-2">
          <mxGeometry x="150" y="420" width="40" height="40" as="geometry" />
        </mxCell>
        <mxCell id="saKa0zLGz0taIL4yaIBg-11" value="Patient can now proceed to Login" style="text;html=1;align=center;verticalAlign=middle;whiteSpace=wrap;rounded=0;" vertex="1" parent="1c1d494c118603dd-2">
          <mxGeometry x="170" y="480" width="70" height="30" as="geometry" />
        </mxCell>
        <mxCell id="saKa0zLGz0taIL4yaIBg-23" style="edgeStyle=orthogonalEdgeStyle;rounded=0;orthogonalLoop=1;jettySize=auto;html=1;exitX=0.5;exitY=1;exitDx=0;exitDy=0;" edge="1" parent="1c1d494c118603dd-2" source="saKa0zLGz0taIL4yaIBg-21">
          <mxGeometry relative="1" as="geometry">
            <mxPoint x="65" y="660" as="targetPoint" />
          </mxGeometry>
        </mxCell>
        <mxCell id="saKa0zLGz0taIL4yaIBg-21" value="Registration Not Successful" style="rounded=1;whiteSpace=wrap;html=1;shadow=0;comic=0;labelBackgroundColor=none;strokeWidth=1;fontFamily=Verdana;fontSize=12;align=center;arcSize=50;" vertex="1" parent="1c1d494c118603dd-2">
          <mxGeometry x="10" y="580" width="110" height="40" as="geometry" />
        </mxCell>
        <mxCell id="saKa0zLGz0taIL4yaIBg-25" style="edgeStyle=orthogonalEdgeStyle;rounded=0;orthogonalLoop=1;jettySize=auto;html=1;" edge="1" parent="1c1d494c118603dd-2" source="saKa0zLGz0taIL4yaIBg-24">
          <mxGeometry relative="1" as="geometry">
            <mxPoint x="570" y="690" as="targetPoint" />
          </mxGeometry>
        </mxCell>
        <mxCell id="saKa0zLGz0taIL4yaIBg-24" value="Contact ED Staff" style="rounded=1;whiteSpace=wrap;html=1;shadow=0;comic=0;labelBackgroundColor=none;strokeWidth=1;fontFamily=Verdana;fontSize=12;align=center;arcSize=50;" vertex="1" parent="1c1d494c118603dd-2">
          <mxGeometry x="10" y="670" width="100" height="40" as="geometry" />
        </mxCell>
        <mxCell id="saKa0zLGz0taIL4yaIBg-67" style="edgeStyle=orthogonalEdgeStyle;rounded=0;orthogonalLoop=1;jettySize=auto;html=1;entryX=0.5;entryY=0;entryDx=0;entryDy=0;" edge="1" parent="1c1d494c118603dd-2" source="saKa0zLGz0taIL4yaIBg-34" target="saKa0zLGz0taIL4yaIBg-55">
          <mxGeometry relative="1" as="geometry" />
        </mxCell>
        <mxCell id="saKa0zLGz0taIL4yaIBg-34" value="Patient notified successful registration" style="rounded=1;whiteSpace=wrap;html=1;shadow=0;comic=0;labelBackgroundColor=none;strokeWidth=1;fontFamily=Verdana;fontSize=12;align=center;arcSize=50;" vertex="1" parent="1c1d494c118603dd-2">
          <mxGeometry x="30" y="900" width="110" height="40" as="geometry" />
        </mxCell>
        <mxCell id="saKa0zLGz0taIL4yaIBg-55" value="" style="shape=mxgraph.bpmn.shape;html=1;verticalLabelPosition=bottom;labelBackgroundColor=#ffffff;verticalAlign=top;perimeter=ellipsePerimeter;outline=end;symbol=terminate;rounded=0;shadow=0;comic=0;strokeWidth=1;fontFamily=Verdana;fontSize=12;align=center;" vertex="1" parent="1c1d494c118603dd-2">
          <mxGeometry x="65" y="970" width="40" height="40" as="geometry" />
        </mxCell>
        <mxCell id="saKa0zLGz0taIL4yaIBg-57" value="Patient can now proceed to Login" style="text;html=1;align=center;verticalAlign=middle;whiteSpace=wrap;rounded=0;" vertex="1" parent="1c1d494c118603dd-2">
          <mxGeometry y="1020" width="70" height="30" as="geometry" />
        </mxCell>
        <mxCell id="1c1d494c118603dd-3" value="System (GUI)" style="swimlane;html=1;startSize=20;" parent="1c1d494c118603dd-1" vertex="1">
          <mxGeometry x="250" y="20" width="250" height="1130" as="geometry" />
        </mxCell>
        <mxCell id="saKa0zLGz0taIL4yaIBg-1" style="edgeStyle=orthogonalEdgeStyle;rounded=0;orthogonalLoop=1;jettySize=auto;html=1;" edge="1" parent="1c1d494c118603dd-3" source="KbDHJAMVQJwJWBfrR8Hl-8">
          <mxGeometry relative="1" as="geometry">
            <mxPoint x="-60" y="190" as="targetPoint" />
          </mxGeometry>
        </mxCell>
        <mxCell id="saKa0zLGz0taIL4yaIBg-5" style="edgeStyle=orthogonalEdgeStyle;rounded=0;orthogonalLoop=1;jettySize=auto;html=1;" edge="1" parent="1c1d494c118603dd-3" source="KbDHJAMVQJwJWBfrR8Hl-8">
          <mxGeometry relative="1" as="geometry">
            <mxPoint x="135" y="250" as="targetPoint" />
          </mxGeometry>
        </mxCell>
        <mxCell id="KbDHJAMVQJwJWBfrR8Hl-8" value="" style="rhombus;whiteSpace=wrap;html=1;" parent="1c1d494c118603dd-3" vertex="1">
          <mxGeometry x="110" y="170" width="50" height="40" as="geometry" />
        </mxCell>
        <mxCell id="KbDHJAMVQJwJWBfrR8Hl-9" value="Correct?" style="text;html=1;align=center;verticalAlign=middle;whiteSpace=wrap;rounded=0;" parent="1c1d494c118603dd-3" vertex="1">
          <mxGeometry x="160" y="170" width="70" height="30" as="geometry" />
        </mxCell>
        <mxCell id="MPAdA7pHePFHHVDjgnxd-84" style="edgeStyle=orthogonalEdgeStyle;rounded=0;orthogonalLoop=1;jettySize=auto;html=1;entryX=0.5;entryY=0;entryDx=0;entryDy=0;" parent="1c1d494c118603dd-3" source="KbDHJAMVQJwJWBfrR8Hl-16" target="KbDHJAMVQJwJWBfrR8Hl-8" edge="1">
          <mxGeometry relative="1" as="geometry" />
        </mxCell>
        <mxCell id="KbDHJAMVQJwJWBfrR8Hl-16" value="Verify Details" style="rounded=1;whiteSpace=wrap;html=1;shadow=0;comic=0;labelBackgroundColor=none;strokeWidth=1;fontFamily=Verdana;fontSize=12;align=center;arcSize=50;" parent="1c1d494c118603dd-3" vertex="1">
          <mxGeometry x="85" y="100" width="100" height="30" as="geometry" />
        </mxCell>
        <mxCell id="KbDHJAMVQJwJWBfrR8Hl-20" value="Yes" style="text;html=1;align=center;verticalAlign=middle;whiteSpace=wrap;rounded=0;" parent="1c1d494c118603dd-3" vertex="1">
          <mxGeometry x="115" y="210" width="70" height="30" as="geometry" />
        </mxCell>
        <mxCell id="MPAdA7pHePFHHVDjgnxd-115" value="" style="html=1;points=[[0,0,0,0,5],[0,1,0,0,-5],[1,0,0,0,5],[1,1,0,0,-5]];perimeter=orthogonalPerimeter;outlineConnect=0;targetShapes=umlLifeline;portConstraint=eastwest;newEdgeStyle={&quot;curved&quot;:0,&quot;rounded&quot;:0};direction=south;strokeColor=#000000;fillColor=#000000;" parent="1c1d494c118603dd-3" vertex="1">
          <mxGeometry x="10" y="320" width="90" height="10" as="geometry" />
        </mxCell>
        <mxCell id="saKa0zLGz0taIL4yaIBg-4" value="No" style="text;html=1;align=center;verticalAlign=middle;whiteSpace=wrap;rounded=0;" vertex="1" parent="1c1d494c118603dd-3">
          <mxGeometry x="40" y="160" width="70" height="30" as="geometry" />
        </mxCell>
        <mxCell id="saKa0zLGz0taIL4yaIBg-16" style="edgeStyle=orthogonalEdgeStyle;rounded=0;orthogonalLoop=1;jettySize=auto;html=1;" edge="1" parent="1c1d494c118603dd-3" source="saKa0zLGz0taIL4yaIBg-6" target="MPAdA7pHePFHHVDjgnxd-115">
          <mxGeometry relative="1" as="geometry">
            <Array as="points">
              <mxPoint x="135" y="300" />
              <mxPoint x="55" y="300" />
            </Array>
          </mxGeometry>
        </mxCell>
        <mxCell id="saKa0zLGz0taIL4yaIBg-20" style="edgeStyle=orthogonalEdgeStyle;rounded=0;orthogonalLoop=1;jettySize=auto;html=1;exitX=0;exitY=0.5;exitDx=0;exitDy=0;" edge="1" parent="1c1d494c118603dd-3" source="saKa0zLGz0taIL4yaIBg-6">
          <mxGeometry relative="1" as="geometry">
            <mxPoint x="-200" y="570" as="targetPoint" />
          </mxGeometry>
        </mxCell>
        <mxCell id="saKa0zLGz0taIL4yaIBg-6" value="" style="rhombus;whiteSpace=wrap;html=1;" vertex="1" parent="1c1d494c118603dd-3">
          <mxGeometry x="110" y="250" width="50" height="40" as="geometry" />
        </mxCell>
        <mxCell id="saKa0zLGz0taIL4yaIBg-7" value="Register Success?" style="text;html=1;align=center;verticalAlign=middle;whiteSpace=wrap;rounded=0;" vertex="1" parent="1c1d494c118603dd-3">
          <mxGeometry x="160" y="250" width="70" height="30" as="geometry" />
        </mxCell>
        <mxCell id="saKa0zLGz0taIL4yaIBg-14" value="Yes" style="text;html=1;align=center;verticalAlign=middle;whiteSpace=wrap;rounded=0;" vertex="1" parent="1c1d494c118603dd-3">
          <mxGeometry x="100" y="300" width="70" height="30" as="geometry" />
        </mxCell>
        <mxCell id="saKa0zLGz0taIL4yaIBg-19" value="" style="endArrow=classic;html=1;rounded=0;" edge="1" parent="1c1d494c118603dd-3">
          <mxGeometry width="50" height="50" relative="1" as="geometry">
            <mxPoint x="70" y="330" as="sourcePoint" />
            <mxPoint x="570" y="360" as="targetPoint" />
            <Array as="points">
              <mxPoint x="70" y="360" />
            </Array>
          </mxGeometry>
        </mxCell>
        <mxCell id="saKa0zLGz0taIL4yaIBg-22" value="No" style="text;html=1;align=center;verticalAlign=middle;whiteSpace=wrap;rounded=0;" vertex="1" parent="1c1d494c118603dd-3">
          <mxGeometry x="30" y="240" width="70" height="30" as="geometry" />
        </mxCell>
        <mxCell id="1c1d494c118603dd-4" value="ED Staff" style="swimlane;html=1;startSize=20;" parent="1c1d494c118603dd-1" vertex="1">
          <mxGeometry x="500" y="20" width="250" height="1130" as="geometry" />
        </mxCell>
        <mxCell id="saKa0zLGz0taIL4yaIBg-27" style="edgeStyle=orthogonalEdgeStyle;rounded=0;orthogonalLoop=1;jettySize=auto;html=1;" edge="1" parent="1c1d494c118603dd-4" source="saKa0zLGz0taIL4yaIBg-26">
          <mxGeometry relative="1" as="geometry">
            <mxPoint x="125" y="750" as="targetPoint" />
          </mxGeometry>
        </mxCell>
        <mxCell id="saKa0zLGz0taIL4yaIBg-26" value="Resolve Issue" style="rounded=1;whiteSpace=wrap;html=1;shadow=0;comic=0;labelBackgroundColor=none;strokeWidth=1;fontFamily=Verdana;fontSize=12;align=center;arcSize=50;" vertex="1" parent="1c1d494c118603dd-4">
          <mxGeometry x="75" y="670" width="100" height="40" as="geometry" />
        </mxCell>
        <mxCell id="saKa0zLGz0taIL4yaIBg-29" style="edgeStyle=orthogonalEdgeStyle;rounded=0;orthogonalLoop=1;jettySize=auto;html=1;" edge="1" parent="1c1d494c118603dd-4" source="saKa0zLGz0taIL4yaIBg-28">
          <mxGeometry relative="1" as="geometry">
            <mxPoint x="127.5" y="860" as="targetPoint" />
          </mxGeometry>
        </mxCell>
        <mxCell id="saKa0zLGz0taIL4yaIBg-28" value="Check System and assist Patient" style="rounded=1;whiteSpace=wrap;html=1;shadow=0;comic=0;labelBackgroundColor=none;strokeWidth=1;fontFamily=Verdana;fontSize=12;align=center;arcSize=50;" vertex="1" parent="1c1d494c118603dd-4">
          <mxGeometry x="75" y="760" width="105" height="50" as="geometry" />
        </mxCell>
        <mxCell id="saKa0zLGz0taIL4yaIBg-59" style="edgeStyle=orthogonalEdgeStyle;rounded=0;orthogonalLoop=1;jettySize=auto;html=1;" edge="1" parent="1c1d494c118603dd-4" source="saKa0zLGz0taIL4yaIBg-30">
          <mxGeometry relative="1" as="geometry">
            <mxPoint x="127.5" y="960" as="targetPoint" />
          </mxGeometry>
        </mxCell>
        <mxCell id="saKa0zLGz0taIL4yaIBg-30" value="" style="rhombus;whiteSpace=wrap;html=1;" vertex="1" parent="1c1d494c118603dd-4">
          <mxGeometry x="102.5" y="860" width="50" height="40" as="geometry" />
        </mxCell>
        <mxCell id="saKa0zLGz0taIL4yaIBg-31" value="Issue resolved?" style="text;html=1;align=center;verticalAlign=middle;whiteSpace=wrap;rounded=0;" vertex="1" parent="1c1d494c118603dd-4">
          <mxGeometry x="152.5" y="850" width="70" height="30" as="geometry" />
        </mxCell>
        <mxCell id="saKa0zLGz0taIL4yaIBg-58" value="Yes" style="text;html=1;align=center;verticalAlign=middle;whiteSpace=wrap;rounded=0;" vertex="1" parent="1c1d494c118603dd-4">
          <mxGeometry x="20" y="850" width="70" height="30" as="geometry" />
        </mxCell>
        <mxCell id="saKa0zLGz0taIL4yaIBg-61" style="edgeStyle=orthogonalEdgeStyle;rounded=0;orthogonalLoop=1;jettySize=auto;html=1;" edge="1" parent="1c1d494c118603dd-4" source="saKa0zLGz0taIL4yaIBg-60">
          <mxGeometry relative="1" as="geometry">
            <mxPoint x="330" y="990" as="targetPoint" />
          </mxGeometry>
        </mxCell>
        <mxCell id="saKa0zLGz0taIL4yaIBg-60" value="Contact System Adminstrator" style="rounded=1;whiteSpace=wrap;html=1;shadow=0;comic=0;labelBackgroundColor=none;strokeWidth=1;fontFamily=Verdana;fontSize=12;align=center;arcSize=50;" vertex="1" parent="1c1d494c118603dd-4">
          <mxGeometry x="70" y="970" width="110" height="40" as="geometry" />
        </mxCell>
        <mxCell id="saKa0zLGz0taIL4yaIBg-68" value="No" style="text;html=1;align=center;verticalAlign=middle;whiteSpace=wrap;rounded=0;" vertex="1" parent="1c1d494c118603dd-4">
          <mxGeometry x="120" y="910" width="70" height="30" as="geometry" />
        </mxCell>
        <mxCell id="saKa0zLGz0taIL4yaIBg-15" style="edgeStyle=orthogonalEdgeStyle;rounded=0;orthogonalLoop=1;jettySize=auto;html=1;" edge="1" parent="1c1d494c118603dd-1" source="MPAdA7pHePFHHVDjgnxd-115" target="KbDHJAMVQJwJWBfrR8Hl-19">
          <mxGeometry relative="1" as="geometry">
            <mxPoint x="280" y="360" as="sourcePoint" />
            <Array as="points">
              <mxPoint x="280" y="380" />
            </Array>
          </mxGeometry>
        </mxCell>
        <mxCell id="saKa0zLGz0taIL4yaIBg-33" style="edgeStyle=orthogonalEdgeStyle;rounded=0;orthogonalLoop=1;jettySize=auto;html=1;entryX=0.5;entryY=0;entryDx=0;entryDy=0;" edge="1" parent="1c1d494c118603dd-1" source="saKa0zLGz0taIL4yaIBg-30" target="saKa0zLGz0taIL4yaIBg-34">
          <mxGeometry relative="1" as="geometry">
            <mxPoint x="160" y="900" as="targetPoint" />
          </mxGeometry>
        </mxCell>
        <mxCell id="MPAdA7pHePFHHVDjgnxd-1" value="System Administrator" style="swimlane;html=1;startSize=20;" parent="1" vertex="1">
          <mxGeometry x="790" y="40" width="250" height="1130" as="geometry" />
        </mxCell>
        <mxCell id="MPAdA7pHePFHHVDjgnxd-2" value="" style="rounded=0;whiteSpace=wrap;html=1;" parent="MPAdA7pHePFHHVDjgnxd-1" vertex="1">
          <mxGeometry y="-20" width="250" height="20" as="geometry" />
        </mxCell>
        <mxCell id="saKa0zLGz0taIL4yaIBg-17" value="Notified new User registered" style="rounded=1;whiteSpace=wrap;html=1;shadow=0;comic=0;labelBackgroundColor=none;strokeWidth=1;fontFamily=Verdana;fontSize=12;align=center;arcSize=50;" vertex="1" parent="MPAdA7pHePFHHVDjgnxd-1">
          <mxGeometry x="75" y="340" width="105" height="40" as="geometry" />
        </mxCell>
        <mxCell id="saKa0zLGz0taIL4yaIBg-63" style="edgeStyle=orthogonalEdgeStyle;rounded=0;orthogonalLoop=1;jettySize=auto;html=1;exitX=0.5;exitY=1;exitDx=0;exitDy=0;" edge="1" parent="MPAdA7pHePFHHVDjgnxd-1" source="saKa0zLGz0taIL4yaIBg-62">
          <mxGeometry relative="1" as="geometry">
            <mxPoint x="140" y="1050" as="targetPoint" />
          </mxGeometry>
        </mxCell>
        <mxCell id="saKa0zLGz0taIL4yaIBg-62" value="Check Backend" style="rounded=1;whiteSpace=wrap;html=1;shadow=0;comic=0;labelBackgroundColor=none;strokeWidth=1;fontFamily=Verdana;fontSize=12;align=center;arcSize=50;" vertex="1" parent="MPAdA7pHePFHHVDjgnxd-1">
          <mxGeometry x="90" y="970" width="100" height="40" as="geometry" />
        </mxCell>
        <mxCell id="saKa0zLGz0taIL4yaIBg-64" value="Fix Issue and Register Patient" style="rounded=1;whiteSpace=wrap;html=1;shadow=0;comic=0;labelBackgroundColor=none;strokeWidth=1;fontFamily=Verdana;fontSize=12;align=center;arcSize=50;" vertex="1" parent="MPAdA7pHePFHHVDjgnxd-1">
          <mxGeometry x="80" y="1060" width="110" height="50" as="geometry" />
        </mxCell>
        <mxCell id="saKa0zLGz0taIL4yaIBg-65" style="edgeStyle=orthogonalEdgeStyle;rounded=0;orthogonalLoop=1;jettySize=auto;html=1;entryX=1;entryY=0.5;entryDx=0;entryDy=0;" edge="1" parent="1" source="saKa0zLGz0taIL4yaIBg-64" target="saKa0zLGz0taIL4yaIBg-34">
          <mxGeometry relative="1" as="geometry">
            <mxPoint x="180" y="1125" as="targetPoint" />
            <Array as="points">
              <mxPoint x="220" y="1125" />
              <mxPoint x="220" y="960" />
            </Array>
          </mxGeometry>
        </mxCell>
      </root>
    </mxGraphModel>
  </diagram>
</mxfile>
